<mxfile host="app.diagrams.net" agent="Mozilla/5.0 (Windows NT 10.0; Win64; x64; rv:136.0) Gecko/20100101 Firefox/136.0" version="26.1.1">
  <diagram name="Page-1" id="kRz6OlRiXYrh5v9FN1o7">
    <mxGraphModel dx="1235" dy="769" grid="1" gridSize="10" guides="1" tooltips="1" connect="1" arrows="1" fold="1" page="1" pageScale="1" pageWidth="850" pageHeight="1100" math="0" shadow="0">
      <root>
        <mxCell id="0" />
        <mxCell id="1" parent="0" />
        <mxCell id="EoD0giyDI6AkSWSWBgpD-2" value="&lt;div&gt;Project Manager&lt;/div&gt;&lt;div&gt;&lt;br&gt;&lt;/div&gt;" style="shape=umlActor;verticalLabelPosition=bottom;verticalAlign=top;html=1;" vertex="1" parent="1">
          <mxGeometry x="210" y="400" width="110" height="190" as="geometry" />
        </mxCell>
        <mxCell id="EoD0giyDI6AkSWSWBgpD-11" value="" style="ellipse;whiteSpace=wrap;html=1;" vertex="1" parent="1">
          <mxGeometry x="490" y="170" width="120" height="80" as="geometry" />
        </mxCell>
        <mxCell id="EoD0giyDI6AkSWSWBgpD-12" value="" style="ellipse;whiteSpace=wrap;html=1;" vertex="1" parent="1">
          <mxGeometry x="490" y="270" width="120" height="80" as="geometry" />
        </mxCell>
        <mxCell id="EoD0giyDI6AkSWSWBgpD-13" value="" style="ellipse;whiteSpace=wrap;html=1;" vertex="1" parent="1">
          <mxGeometry x="490" y="390" width="120" height="80" as="geometry" />
        </mxCell>
        <mxCell id="EoD0giyDI6AkSWSWBgpD-14" value="" style="ellipse;whiteSpace=wrap;html=1;" vertex="1" parent="1">
          <mxGeometry x="490" y="510" width="120" height="80" as="geometry" />
        </mxCell>
        <mxCell id="EoD0giyDI6AkSWSWBgpD-15" value="" style="ellipse;whiteSpace=wrap;html=1;" vertex="1" parent="1">
          <mxGeometry x="490" y="630" width="120" height="80" as="geometry" />
        </mxCell>
        <mxCell id="EoD0giyDI6AkSWSWBgpD-16" value="" style="ellipse;whiteSpace=wrap;html=1;" vertex="1" parent="1">
          <mxGeometry x="490" y="730" width="120" height="80" as="geometry" />
        </mxCell>
        <mxCell id="EoD0giyDI6AkSWSWBgpD-17" value="" style="endArrow=none;html=1;rounded=0;entryX=0;entryY=0.5;entryDx=0;entryDy=0;exitX=0.735;exitY=0.144;exitDx=0;exitDy=0;exitPerimeter=0;" edge="1" parent="1" source="EoD0giyDI6AkSWSWBgpD-2" target="EoD0giyDI6AkSWSWBgpD-11">
          <mxGeometry width="50" height="50" relative="1" as="geometry">
            <mxPoint x="290" y="400" as="sourcePoint" />
            <mxPoint x="340" y="350" as="targetPoint" />
          </mxGeometry>
        </mxCell>
        <mxCell id="EoD0giyDI6AkSWSWBgpD-19" value="" style="endArrow=none;html=1;rounded=0;entryX=0;entryY=0.5;entryDx=0;entryDy=0;" edge="1" parent="1" target="EoD0giyDI6AkSWSWBgpD-12">
          <mxGeometry width="50" height="50" relative="1" as="geometry">
            <mxPoint x="293" y="430" as="sourcePoint" />
            <mxPoint x="340" y="370" as="targetPoint" />
          </mxGeometry>
        </mxCell>
        <mxCell id="EoD0giyDI6AkSWSWBgpD-20" value="" style="endArrow=none;html=1;rounded=0;" edge="1" parent="1" target="EoD0giyDI6AkSWSWBgpD-13">
          <mxGeometry width="50" height="50" relative="1" as="geometry">
            <mxPoint x="290" y="430" as="sourcePoint" />
            <mxPoint x="340" y="380" as="targetPoint" />
          </mxGeometry>
        </mxCell>
        <mxCell id="EoD0giyDI6AkSWSWBgpD-21" value="" style="endArrow=none;html=1;rounded=0;entryX=0.02;entryY=0.267;entryDx=0;entryDy=0;entryPerimeter=0;" edge="1" parent="1" target="EoD0giyDI6AkSWSWBgpD-14">
          <mxGeometry width="50" height="50" relative="1" as="geometry">
            <mxPoint x="290" y="430" as="sourcePoint" />
            <mxPoint x="340" y="380" as="targetPoint" />
          </mxGeometry>
        </mxCell>
        <mxCell id="EoD0giyDI6AkSWSWBgpD-22" value="" style="endArrow=none;html=1;rounded=0;" edge="1" parent="1">
          <mxGeometry width="50" height="50" relative="1" as="geometry">
            <mxPoint x="490" y="660" as="sourcePoint" />
            <mxPoint x="290" y="430" as="targetPoint" />
          </mxGeometry>
        </mxCell>
        <mxCell id="EoD0giyDI6AkSWSWBgpD-23" value="" style="endArrow=none;html=1;rounded=0;entryX=0.727;entryY=0.211;entryDx=0;entryDy=0;entryPerimeter=0;" edge="1" parent="1" target="EoD0giyDI6AkSWSWBgpD-2">
          <mxGeometry width="50" height="50" relative="1" as="geometry">
            <mxPoint x="490" y="770" as="sourcePoint" />
            <mxPoint x="540" y="720" as="targetPoint" />
          </mxGeometry>
        </mxCell>
        <mxCell id="EoD0giyDI6AkSWSWBgpD-24" value="&lt;div&gt;Add Employee&lt;/div&gt;&lt;div&gt;&lt;br&gt;&lt;/div&gt;" style="text;html=1;align=center;verticalAlign=middle;whiteSpace=wrap;rounded=0;" vertex="1" parent="1">
          <mxGeometry x="520" y="195" width="60" height="30" as="geometry" />
        </mxCell>
        <mxCell id="EoD0giyDI6AkSWSWBgpD-25" value="&lt;div&gt;Add Task&lt;/div&gt;&lt;div&gt;(Simple or Complex)&lt;/div&gt;" style="text;html=1;align=center;verticalAlign=middle;whiteSpace=wrap;rounded=0;" vertex="1" parent="1">
          <mxGeometry x="485" y="290" width="130" height="30" as="geometry" />
        </mxCell>
        <mxCell id="EoD0giyDI6AkSWSWBgpD-26" value="Assign Task to Employee" style="text;html=1;align=center;verticalAlign=middle;whiteSpace=wrap;rounded=0;" vertex="1" parent="1">
          <mxGeometry x="520" y="415" width="60" height="30" as="geometry" />
        </mxCell>
        <mxCell id="EoD0giyDI6AkSWSWBgpD-27" value="View Employees and their Tasks" style="text;html=1;align=center;verticalAlign=middle;whiteSpace=wrap;rounded=0;" vertex="1" parent="1">
          <mxGeometry x="520" y="535" width="60" height="30" as="geometry" />
        </mxCell>
        <mxCell id="EoD0giyDI6AkSWSWBgpD-28" value="Modify Task Status" style="text;html=1;align=center;verticalAlign=middle;whiteSpace=wrap;rounded=0;" vertex="1" parent="1">
          <mxGeometry x="510" y="655" width="80" height="30" as="geometry" />
        </mxCell>
        <mxCell id="EoD0giyDI6AkSWSWBgpD-29" value="View Statistics" style="text;html=1;align=center;verticalAlign=middle;whiteSpace=wrap;rounded=0;" vertex="1" parent="1">
          <mxGeometry x="520" y="755" width="60" height="30" as="geometry" />
        </mxCell>
      </root>
    </mxGraphModel>
  </diagram>
</mxfile>
